<svg xmlns="http://www.w3.org/2000/svg" viewBox="0 0 256 256" role="img" aria-labelledby="title desc">
  <title id="title">Balient</title>
  <desc id="desc">Balient's blue and indigo speech-bubble mark</desc>
  <defs>
    <linearGradient id="background" x1="34" y1="22" x2="221" y2="234" gradientUnits="userSpaceOnUse">
      <stop stop-color="#1d4ed8"/>
      <stop offset="1" stop-color="#4f46e5"/>
    </linearGradient>
    <linearGradient id="bubble" x1="71" y1="58" x2="188" y2="193" gradientUnits="userSpaceOnUse">
      <stop stop-color="#ffffff"/>
      <stop offset="1" stop-color="#dbeafe"/>
    </linearGradient>
    <filter id="shadow" x="-25%" y="-25%" width="150%" height="150%">
      <feDropShadow dx="0" dy="8" stdDeviation="8" flood-color="#172554" flood-opacity=".28"/>
    </filter>
  </defs>
  <rect x="12" y="12" width="232" height="232" rx="62" fill="url(#background)"/>
  <path d="M63 68c0-16.6 13.4-30 30-30h70c16.6 0 30 13.4 30 30v57c0 16.6-13.4 30-30 30h-42.6L87 186.9c-5.1 4.9-13.7 1.3-13.7-5.8V155c-6.3-5.4-10.3-13.4-10.3-22.4V68Z" fill="#0f2c92" opacity=".48"/>
  <path d="M63 59c0-16.6 13.4-30 30-30h70c16.6 0 30 13.4 30 30v57c0 16.6-13.4 30-30 30h-42.6L87 177.9c-5.1 4.9-13.7 1.3-13.7-5.8V146c-6.3-5.4-10.3-13.4-10.3-22.4V59Z" fill="url(#bubble)" filter="url(#shadow)"/>
  <path d="M103 66h35c20.4 0 35 12.1 35 31 0 19-14.6 31-35 31h-18v20.8c0 5.8-7 8.8-11.1 4.7l-18.5-18.5c-3-3-1-8 3.2-8H104c7.6 0 12.9-3.6 12.9-9.6 0-5.8-4.9-9.4-12.1-9.4H91c-7.7 0-14-6.3-14-14s6.3-14 14-14h12c5.5 0 10-4.5 10-10s-4.5-10-10-10Z" fill="#3158d4"/>
  <path d="M139 82c10.2 0 18 5.2 18 15s-7.8 15-18 15h-22.1c6.1-5.2 8.8-13 7.1-21.3A27 27 0 0 0 119 82h20Z" fill="#1e40af" opacity=".18"/>
  <circle cx="162" cy="187" r="24" fill="#5eead4"/>
  <path d="m151.5 187 7.1 7.1 14.9-16.2" fill="none" stroke="#115e59" stroke-width="7" stroke-linecap="round" stroke-linejoin="round"/>
</svg>
